<?xml version="1.0" encoding="UTF-8"?>
<svg id="Layer_1" data-name="Layer 1" xmlns="http://www.w3.org/2000/svg" viewBox="0 0 3383.48 2505.07">
  <defs>
    <style>
      .cls-1 {
        fill: #448af4;
      }

      .cls-2 {
        fill: #256cdc;
      }

      .cls-3 {
        fill: #4388f3;
      }

      .cls-4 {
        fill: #ebeced;
      }
    </style>
  </defs>
  <path class="cls-4" d="M2069.03,1332.69c-488.98,1.53-978.27,0-1467.26,0h-305.68c35.19-128.07,63.39-266.83,104.46-392.27,40.68-124.26,135.63-214.33,269.77-224.42h2145.32c58.17,7.98,58.09,51.2,47.85,99.27-16.82,78.98-87.4,308.22-130.06,369.22-52.12,74.51-147.97,137.5-239.53,147.66-124.15,13.79-295.15.13-424.87.54ZM636.08,870.21c-72.96,14.74-50.38,131.95,33.31,114.86,73.35-14.98,48.78-131.45-33.31-114.86ZM824.55,870.27c-40.52,8.26-57,63.04-31.97,95.84,41.93,54.93,143.35-4.72,96.68-71.2-16.44-23.41-36.47-30.39-64.71-24.64ZM1013.11,870.26c-58.06,10.15-62.34,97.69-3.93,113.58,98.15,26.7,105.66-131.37,3.93-113.58Z"/>
  <path class="cls-1" d="M825.93,614.34c-2.48-2.36,15.32-57.8,18.03-66.03,39.81-121.08,125.12-400.24,216.27-476.61C1142.79,2.53,1206.57,4.49,1307.15,3.26c633.55-7.79,1270.17,1.06,1900.33-.48,61.92-.15,189.9-22.94,174.77,72.84-75.98,170.84-94.25,413.56-280.61,504.01-18.93,9.19-90.27,34.72-107.93,34.72H825.93ZM1201.72,151.69c-86.43,12.83-50.05,149.38,32.99,114.84,69.5-28.91,35.37-124.99-32.99-114.84ZM1385.11,151.65c-89.57,11.26-46.41,158.16,40.44,112.16,58.9-31.2,25.3-120.42-40.44-112.16ZM1573.8,151.85c-97.77,10.32-50.74,156.71,40.33,112.03,55.71-27.33,28.22-119.26-40.33-112.03Z"/>
  <path class="cls-3" d="M2043.56,1419.3c-31.17,112.6-42.66,185-122.14,277.79-186.41,217.63-427.07,159.18-682.82,165.45-118.94,2.91-217.37,15.78-332.25,47.3-338.45,92.85-643.65,310.77-870.09,574.25-2.84-1.54-10.79.86-18.04-4.68-19.66-15-20.12-55.71-16.4-78.17,25.11-56.17,119.6-478.6,141.43-492.85,48.83-31.88,74.67-86.63,116.97-130.12,198.1-203.7,473.23-318.72,752.33-358.31,324.02,1.3,653.69-21.06,977.76-6,18.14.84,34.98,7.02,53.25,5.34Z"/>
  <path class="cls-2" d="M1238.6,1862.53c.46,14.1-3.95,27.42-7.68,40.74-25.75,92-53.4,203.31-85.45,291.53-58.81,161.85-225.15,292.32-398.31,304.75-224.22,16.1-473.23-8.58-698.78-4.91-6.28-.1-10.15-9.5-12.13-10.57,226.44-263.48,531.64-481.4,870.09-574.25,114.88-31.52,213.31-44.39,332.25-47.3Z"/>
  <path class="cls-2" d="M306.27,1332.69h295.49c488.99,0,978.28,1.53,1467.26,0-4.81,29.9-17.48,57.75-25.47,86.61-18.27,1.68-35.11-4.49-53.25-5.34-324.06-15.06-653.74,7.3-977.76,6-279.1,39.59-554.23,154.61-752.33,358.31-42.3,43.49-68.14,98.24-116.97,130.12,14.64-93.19,43.8-184.26,68.63-275.26,27.26-99.89,56.72-200.43,84.21-300.44h10.19Z"/>
</svg>